<svg xmlns="http://www.w3.org/2000/svg" viewBox="0 0 49 49" class="segno"><path fill="#fff" d="M0 0h49v49h-49z"/><path class="qrline" stroke="#000" d="M2 2.5h7m3 0h3m1 0h1m2 0h10m1 0h4m4 0h1m1 0h7m-45 1h1m5 0h1m2 0h3m2 0h2m1 0h3m2 0h1m1 0h1m3 0h4m3 0h1m2 0h1m5 0h1m-45 1h1m1 0h3m1 0h1m2 0h1m1 0h3m2 0h2m1 0h3m3 0h7m3 0h1m2 0h1m1 0h3m1 0h1m-45 1h1m1 0h3m1 0h1m3 0h1m1 0h1m1 0h5m1 0h1m2 0h2m1 0h4m5 0h2m1 0h1m1 0h3m1 0h1m-45 1h1m1 0h3m1 0h1m1 0h1m1 0h1m1 0h1m1 0h4m1 0h6m8 0h4m1 0h1m1 0h3m1 0h1m-45 1h1m5 0h1m2 0h4m3 0h2m2 0h1m3 0h2m4 0h2m6 0h1m5 0h1m-45 1h7m1 0h1m1 0h1m1 0h1m1 0h1m1 0h1m1 0h1m1 0h1m1 0h1m1 0h1m1 0h1m1 0h1m1 0h1m1 0h1m1 0h1m1 0h1m1 0h7m-37 1h4m1 0h1m2 0h1m1 0h3m3 0h1m4 0h2m2 0h2m1 0h1m-35 1h2m2 0h3m2 0h1m1 0h1m1 0h1m2 0h7m2 0h2m2 0h1m1 0h1m1 0h4m1 0h1m-41 1h2m2 0h2m1 0h1m1 0h2m1 0h1m2 0h1m1 0h2m1 0h1m4 0h1m3 0h5m1 0h3m2 0h3m1 0h1m-45 1h4m1 0h4m2 0h1m1 0h2m1 0h1m2 0h1m3 0h1m1 0h1m2 0h1m1 0h3m1 0h1m4 0h3m2 0h1m-45 1h2m2 0h1m4 0h1m1 0h7m4 0h1m2 0h3m1 0h5m1 0h1m1 0h1m3 0h1m1 0h2m-45 1h1m2 0h1m2 0h7m4 0h2m1 0h4m1 0h1m1 0h2m2 0h1m7 0h1m-40 1h1m2 0h2m2 0h4m1 0h1m2 0h5m2 0h1m4 0h2m3 0h2m1 0h1m1 0h6m-42 1h4m1 0h3m2 0h1m7 0h3m1 0h1m2 0h1m3 0h1m2 0h1m1 0h2m1 0h2m3 0h1m-44 1h1m1 0h1m2 0h1m4 0h4m4 0h2m2 0h1m1 0h2m2 0h1m1 0h1m1 0h1m1 0h3m2 0h4m-43 1h2m1 0h1m2 0h1m1 0h6m4 0h1m4 0h2m3 0h2m1 0h2m1 0h6m2 0h2m-37 1h1m2 0h1m3 0h1m1 0h1m1 0h2m2 0h1m1 0h2m2 0h1m2 0h1m1 0h2m4 0h2m1 0h3m-41 1h4m1 0h1m1 0h4m1 0h2m1 0h2m1 0h1m1 0h1m2 0h2m1 0h1m1 0h3m1 0h3m2 0h3m-44 1h1m1 0h1m5 0h1m1 0h5m1 0h1m1 0h2m1 0h8m1 0h1m2 0h1m3 0h1m2 0h2m1 0h1m-42 1h1m1 0h6m1 0h1m1 0h13m1 0h1m2 0h1m5 0h5m1 0h3m-45 1h2m1 0h2m3 0h3m3 0h2m2 0h1m1 0h1m3 0h1m1 0h2m1 0h1m1 0h2m2 0h2m3 0h2m2 0h1m-41 1h1m1 0h1m1 0h5m1 0h1m2 0h1m1 0h2m1 0h1m1 0h1m1 0h1m1 0h2m1 0h1m2 0h3m1 0h1m1 0h1m2 0h2m-43 1h3m3 0h1m4 0h1m2 0h5m3 0h1m1 0h4m2 0h3m1 0h1m3 0h2m1 0h2m-45 1h1m1 0h1m1 0h8m1 0h1m1 0h3m1 0h10m1 0h2m2 0h1m1 0h6m1 0h2m-45 1h1m3 0h2m3 0h1m2 0h12m6 0h1m1 0h1m4 0h1m1 0h1m2 0h2m-41 1h5m2 0h3m1 0h4m3 0h1m4 0h1m3 0h1m2 0h1m1 0h1m3 0h2m1 0h1m-43 1h1m2 0h1m3 0h1m1 0h1m1 0h8m5 0h2m3 0h1m1 0h2m1 0h2m1 0h2m2 0h2m-41 1h2m1 0h2m3 0h1m2 0h1m1 0h1m3 0h2m2 0h4m3 0h8m1 0h4m-40 1h1m1 0h1m2 0h4m2 0h3m2 0h2m1 0h1m1 0h1m3 0h1m4 0h2m3 0h7m-43 1h5m2 0h5m1 0h1m1 0h2m1 0h1m2 0h4m1 0h1m2 0h1m1 0h2m1 0h2m1 0h1m1 0h3m-44 1h3m1 0h1m3 0h2m3 0h2m1 0h1m1 0h2m1 0h1m1 0h1m1 0h3m1 0h1m1 0h1m4 0h2m1 0h1m3 0h2m-42 1h1m2 0h3m1 0h2m3 0h3m2 0h3m1 0h3m2 0h1m3 0h1m4 0h2m2 0h1m-41 1h4m2 0h3m1 0h1m2 0h3m1 0h2m3 0h1m5 0h2m3 0h2m2 0h1m1 0h2m1 0h1m-41 1h1m1 0h6m1 0h1m2 0h3m1 0h2m1 0h1m1 0h1m2 0h1m1 0h1m3 0h2m1 0h2m2 0h1m1 0h2m-44 1h4m4 0h1m2 0h1m3 0h1m7 0h1m1 0h1m1 0h1m1 0h10m1 0h1m2 0h1m-45 1h1m2 0h2m1 0h2m2 0h4m1 0h12m3 0h2m2 0h1m1 0h6m1 0h2m-37 1h1m1 0h1m1 0h3m3 0h3m3 0h2m2 0h1m2 0h1m1 0h1m1 0h2m3 0h1m1 0h1m-43 1h7m1 0h3m1 0h1m1 0h2m1 0h2m1 0h1m1 0h1m1 0h1m1 0h1m3 0h2m3 0h2m1 0h1m1 0h2m-42 1h1m5 0h1m6 0h4m3 0h1m3 0h2m2 0h1m3 0h3m1 0h1m3 0h4m-44 1h1m1 0h3m1 0h1m2 0h1m1 0h1m4 0h2m1 0h6m1 0h8m1 0h8m1 0h1m-45 1h1m1 0h3m1 0h1m1 0h2m1 0h3m4 0h3m1 0h2m1 0h3m1 0h2m1 0h6m6 0h1m-45 1h1m1 0h3m1 0h1m1 0h2m4 0h1m2 0h3m3 0h1m3 0h3m2 0h7m-39 1h1m5 0h1m7 0h3m3 0h1m3 0h1m2 0h2m2 0h1m1 0h2m1 0h1m1 0h2m4 0h1m-45 1h7m3 0h1m1 0h3m4 0h1m3 0h4m2 0h2m2 0h2m3 0h1m3 0h1"/></svg>
